<svg xmlns="http://www.w3.org/2000/svg" width="357.096" height="369.951" viewBox="0 0 357.096 369.951"><defs><style>.a{fill:#ff9954;}.b{fill:#ffb99b;}.c{fill:#ffe3cd;}.d{fill:#60c2e4;}.e{fill:#fff;}.f{fill:#fb5c6e;stroke:#000;}</style></defs><g transform="translate(-142.595 -159.517)"><g transform="translate(342.991 159.517)"><path d="M77.689,43.373a.475.475,0,0,1-.456-.347c-1.5-5.406-3.944-8.7-7.273-9.8-5.438-1.79-11.505,2.9-11.566,2.947a.474.474,0,0,1-.664-.667c.06-.076,6.01-7.7,4.618-12.644a5.2,5.2,0,0,0-3.515-3.427c-5.374-1.985-11.861,4.626-11.926,4.693a.474.474,0,0,1-.809-.4c.761-5.081-.938-13.381-5.1-18.477A10.527,10.527,0,0,0,33.324.968c-9.4-.491-12.2,7.944-12.313,8.3-2.67,6.825-2.174,14.827-.188,18.343a.474.474,0,0,1-.581.676c-.08-.03-8-2.97-13.608.795C3.032,31.5,1.119,36.156.948,42.911a.474.474,0,0,1-.474.462H.462A.474.474,0,0,1,0,42.887C.18,35.8,2.235,30.894,6.111,28.295a14.331,14.331,0,0,1,9.536-1.978,22.571,22.571,0,0,1,3.857.741c-1.709-4.106-1.953-11.543.615-18.1.019-.065,3.11-9.464,13.256-8.933a11.432,11.432,0,0,1,8.356,4.634c3.991,4.886,5.8,12.607,5.442,17.923,2.095-1.853,7.273-5.771,11.988-4.03a6.09,6.09,0,0,1,4.1,4.06c1.066,3.785-1.581,8.721-3.353,11.453,2.383-1.345,6.441-3.019,10.349-1.734,3.649,1.2,6.3,4.714,7.89,10.444a.474.474,0,0,1-.33.583.469.469,0,0,1-.127.018" transform="translate(6.103 0)"/><path d="M7.694,4.678a.474.474,0,0,1-.319-.123A16.213,16.213,0,0,0,.385.94.474.474,0,0,1,.562.009,16.881,16.881,0,0,1,8.013,3.854a.474.474,0,0,1-.319.824" transform="translate(23.887 26.755)"/><path d="M50.5.948H.474A.474.474,0,0,1,.474,0H50.5a.474.474,0,1,1,0,.948" transform="translate(43.434 42.425)"/><path d="M26.662.948H.474A.474.474,0,0,1,.474,0H26.662a.474.474,0,1,1,0,.948" transform="translate(0 42.425)"/></g><g transform="translate(358.613 319.779)"><path d="M77.689,43.373a.474.474,0,0,1-.456-.347c-1.5-5.4-3.942-8.7-7.27-9.8-5.431-1.79-11.508,2.9-11.569,2.946a.474.474,0,0,1-.664-.667c.06-.076,6.011-7.7,4.618-12.644a5.2,5.2,0,0,0-3.515-3.427c-5.377-1.986-11.861,4.626-11.926,4.693a.474.474,0,0,1-.809-.4c.761-5.081-.938-13.381-5.1-18.476A10.525,10.525,0,0,0,33.325.968c-9.4-.492-12.2,7.943-12.313,8.3-2.67,6.825-2.174,14.827-.188,18.344a.474.474,0,0,1-.581.676c-.08-.03-8-2.969-13.608.794C3.032,31.5,1.119,36.156.948,42.911a.474.474,0,0,1-.474.462H.462A.475.475,0,0,1,0,42.888C.18,35.8,2.235,30.895,6.111,28.3a14.321,14.321,0,0,1,9.536-1.978,22.572,22.572,0,0,1,3.857.741c-1.709-4.106-1.953-11.543.615-18.1.019-.065,3.1-9.469,13.257-8.933a11.431,11.431,0,0,1,8.356,4.634c3.991,4.886,5.8,12.606,5.442,17.923,2.094-1.853,7.276-5.769,11.988-4.029a6.09,6.09,0,0,1,4.1,4.06c1.066,3.784-1.582,8.721-3.353,11.453,2.383-1.346,6.442-3.02,10.348-1.735,3.649,1.2,6.3,4.715,7.891,10.445a.474.474,0,0,1-.33.583.487.487,0,0,1-.127.017" transform="translate(6.103 0)"/><path d="M7.694,4.678a.474.474,0,0,1-.319-.123A16.214,16.214,0,0,0,.385.939.474.474,0,0,1,.562.009,16.869,16.869,0,0,1,8.013,3.854a.474.474,0,0,1-.319.824" transform="translate(23.886 26.755)"/><path d="M50.5.948H.474A.474.474,0,0,1,.474,0H50.5a.474.474,0,1,1,0,.948" transform="translate(43.433 42.426)"/><path d="M26.661.948H.474A.474.474,0,0,1,.474,0H26.661a.474.474,0,0,1,0,.948" transform="translate(0 42.426)"/></g><g transform="translate(142.595 224.014)"><path d="M71.714,40.091a.474.474,0,0,1-.456-.347c-1.377-4.973-3.626-8.006-6.683-9.013-4.99-1.645-10.584,2.668-10.64,2.712a.474.474,0,0,1-.664-.666c.055-.071,5.533-7.093,4.254-11.633a4.7,4.7,0,0,0-3.22-3.137c-4.936-1.824-10.9,4.259-10.964,4.321a.474.474,0,0,1-.809-.4c.7-4.68-.864-12.325-4.7-17.018A9.676,9.676,0,0,0,30.781.967C22.125.515,19.562,8.271,19.457,8.6c-2.46,6.289-2,13.658-.177,16.895a.474.474,0,0,1-.581.676c-.072-.028-7.367-2.733-12.522.73C2.865,29.126,1.105,33.408.947,39.629A.474.474,0,0,1,0,39.6c.166-6.548,2.068-11.088,5.654-13.493,4.394-2.948,9.994-1.831,12.312-1.171-1.552-3.812-1.759-10.634.6-16.655C18.581,8.228,21.432-.477,30.83.02a10.582,10.582,0,0,1,7.737,4.289C42.232,8.8,43.91,15.873,43.6,20.783c1.978-1.736,6.712-5.261,11.031-3.666a5.655,5.655,0,0,1,3.8,3.77c.971,3.448-1.383,7.924-3.019,10.473,2.22-1.231,5.9-2.7,9.448-1.532,3.379,1.112,5.837,4.362,7.3,9.662a.475.475,0,0,1-.457.6" transform="translate(5.631 0)"/><path d="M7.135,4.389a.472.472,0,0,1-.318-.123A14.916,14.916,0,0,0,.385.939.474.474,0,0,1,.562.008,15.6,15.6,0,0,1,7.454,3.565a.474.474,0,0,1-.319.824" transform="translate(22.038 24.685)"/><path d="M46.627.948H.474A.474.474,0,0,1,.474,0H46.627a.474.474,0,1,1,0,.948" transform="translate(40.073 39.143)"/><path d="M24.635.948H.474A.474.474,0,0,1,.474,0H24.635a.474.474,0,1,1,0,.948" transform="translate(0 39.143)"/></g><g transform="translate(151.669 462.635)"><path d="M77.689,43.372a.474.474,0,0,1-.456-.347c-1.5-5.4-3.943-8.7-7.27-9.8-5.429-1.789-11.508,2.9-11.569,2.946a.474.474,0,0,1-.664-.667c.06-.076,6.011-7.7,4.618-12.643a5.2,5.2,0,0,0-3.515-3.427c-5.375-1.987-11.861,4.625-11.927,4.692a.474.474,0,0,1-.809-.4c.761-5.08-.939-13.38-5.1-18.476A10.524,10.524,0,0,0,33.325.967c-9.411-.5-12.2,7.943-12.313,8.3-2.67,6.826-2.174,14.827-.188,18.344a.474.474,0,0,1-.581.676c-.079-.03-8-2.97-13.608.795C3.032,31.5,1.119,36.155.947,42.91a.474.474,0,0,1-.473.462H.462A.474.474,0,0,1,0,42.886C.18,35.8,2.236,30.893,6.111,28.294a14.328,14.328,0,0,1,9.536-1.978,22.662,22.662,0,0,1,3.857.741c-1.71-4.106-1.953-11.543.615-18.1C20.138,8.888,23.23-.494,33.375.02a11.434,11.434,0,0,1,8.357,4.634c3.991,4.886,5.8,12.607,5.442,17.923,2.094-1.853,7.274-5.768,11.988-4.029a6.089,6.089,0,0,1,4.1,4.06c1.066,3.784-1.581,8.721-3.353,11.453,2.383-1.345,6.442-3.019,10.348-1.734,3.649,1.2,6.3,4.714,7.891,10.445a.474.474,0,0,1-.33.583.493.493,0,0,1-.127.017" transform="translate(6.103 0)"/><path d="M7.694,4.678a.472.472,0,0,1-.318-.123A16.22,16.22,0,0,0,.385.939.474.474,0,1,1,.562.008,16.868,16.868,0,0,1,8.013,3.853a.474.474,0,0,1-.319.824" transform="translate(23.886 26.754)"/><path d="M50.5.948H.474A.474.474,0,0,1,.474,0H50.5a.474.474,0,0,1,0,.948" transform="translate(43.433 42.425)"/><path d="M26.662.948H.474A.474.474,0,0,1,.474,0H26.662a.474.474,0,1,1,0,.948" transform="translate(0 42.425)"/></g><g transform="translate(405.286 483.848)"><path d="M77.689,43.372a.474.474,0,0,1-.456-.347c-1.5-5.4-3.942-8.7-7.27-9.8-5.431-1.789-11.508,2.9-11.569,2.946a.474.474,0,0,1-.664-.667c.06-.076,6.01-7.7,4.618-12.643a5.194,5.194,0,0,0-3.515-3.427c-5.373-1.986-11.861,4.625-11.926,4.692a.474.474,0,0,1-.809-.4c.761-5.081-.938-13.381-5.1-18.476A10.524,10.524,0,0,0,33.325.967c-9.406-.51-12.2,7.943-12.313,8.3-2.67,6.825-2.174,14.827-.188,18.344a.474.474,0,0,1-.581.676c-.08-.03-8-2.97-13.608.795C3.032,31.5,1.119,36.155.948,42.91a.493.493,0,0,1-.486.462A.475.475,0,0,1,0,42.886C.18,35.8,2.236,30.893,6.111,28.294a14.336,14.336,0,0,1,9.536-1.978,22.646,22.646,0,0,1,3.857.741c-1.709-4.106-1.952-11.543.615-18.1C20.138,8.888,23.227-.494,33.375.02a11.433,11.433,0,0,1,8.356,4.634c3.991,4.886,5.8,12.606,5.442,17.923,2.095-1.853,7.276-5.767,11.988-4.029a6.09,6.09,0,0,1,4.1,4.06c1.066,3.784-1.581,8.72-3.352,11.453,2.383-1.345,6.443-3.018,10.348-1.734,3.649,1.2,6.3,4.714,7.891,10.445a.474.474,0,0,1-.33.583.488.488,0,0,1-.127.017" transform="translate(6.103 0)"/><path d="M7.694,4.678a.474.474,0,0,1-.319-.123A16.214,16.214,0,0,0,.385.939.474.474,0,0,1,.562.008,16.869,16.869,0,0,1,8.013,3.853a.474.474,0,0,1-.319.824" transform="translate(23.886 26.754)"/><path d="M50.5.948H.474A.474.474,0,0,1,.474,0H50.5a.474.474,0,0,1,0,.948" transform="translate(43.433 42.425)"/><path d="M26.662.948H.474A.474.474,0,0,1,.474,0H26.662a.474.474,0,1,1,0,.948" transform="translate(0 42.425)"/></g><g transform="translate(271.186 376.693)"><g transform="translate(0 0)"><path class="a" d="M117.242,4.637,139.18,99.712a5.866,5.866,0,0,1-.893,4.632,6.565,6.565,0,0,1-3.987,2.71L29.69,131.192a6.6,6.6,0,0,1-4.775-.684,5.9,5.9,0,0,1-2.83-3.778L.148,31.654a5.858,5.858,0,0,1,.757-4.422,6.559,6.559,0,0,1,4.123-2.921L109.638.175a6.558,6.558,0,0,1,4.987.819,5.857,5.857,0,0,1,2.618,3.643" transform="translate(0.474 0.476)"/><path d="M28.633,132.317a7,7,0,0,1-3.481-.922,6.347,6.347,0,0,1-3.055-4.082L.16,32.237a6.325,6.325,0,0,1,.816-4.778A6.99,6.99,0,0,1,5.4,24.327L110.005.189A7.307,7.307,0,0,1,111.647,0a6.924,6.924,0,0,1,3.7,1.069,6.33,6.33,0,0,1,2.827,3.938l21.938,95.075a6.314,6.314,0,0,1-.962,5,7.016,7.016,0,0,1-4.274,2.906L30.27,132.13A7.271,7.271,0,0,1,28.633,132.317ZM111.646.948a6.336,6.336,0,0,0-1.428.165L5.609,25.25a6.049,6.049,0,0,0-3.827,2.708,5.384,5.384,0,0,0-.7,4.067L23.021,127.1a5.407,5.407,0,0,0,2.605,3.474,6.047,6.047,0,0,0,3.008.8,6.338,6.338,0,0,0,1.424-.163l104.609-24.138a6.071,6.071,0,0,0,3.7-2.512,5.374,5.374,0,0,0,.825-4.262L117.254,5.22a5.386,5.386,0,0,0-2.408-3.35A5.984,5.984,0,0,0,111.646.948Z"/><path class="a" d="M113.372,38.659a6.564,6.564,0,0,1-3.987,2.71L4.775,65.506A6.6,6.6,0,0,1,0,64.822L40.278,6.475,44.748,0,51.6,3.862Z" transform="translate(25.389 66.162)"/><path d="M3.718,66.629a6.99,6.99,0,0,1-3.48-.923.474.474,0,0,1-.154-.68L44.831.2a.473.473,0,0,1,.623-.143l68.625,38.658a.475.475,0,0,1,.16.678,7.016,7.016,0,0,1-4.274,2.907L5.355,66.442A7.3,7.3,0,0,1,3.718,66.629ZM45.366,1.1,1.169,65.122a6.025,6.025,0,0,0,2.551.559,6.338,6.338,0,0,0,1.422-.163L109.751,41.381a6.142,6.142,0,0,0,3.395-2.1L45.366,1.1Z" transform="translate(24.915 65.689)"/><path class="b" d="M113.722.994,75.615,69.546l-1.766,3.179a4.614,4.614,0,0,1-6.583,1.519L64.29,72.159,0,27.233a6.552,6.552,0,0,1,4.125-2.921L108.733.175a6.546,6.546,0,0,1,4.988.819" transform="translate(1.377 0.477)"/><path d="M70.306,75.987a4.925,4.925,0,0,1-2.837-.879l-2.976-2.086L.2,28.1A.475.475,0,0,1,.07,27.46a6.985,6.985,0,0,1,4.421-3.134L109.1.189A7.329,7.329,0,0,1,110.746,0a6.911,6.911,0,0,1,3.7,1.069.474.474,0,0,1,.16.631L74.737,73.43a5.022,5.022,0,0,1-3.269,2.425A5.191,5.191,0,0,1,70.306,75.987ZM110.744.948a6.382,6.382,0,0,0-1.431.165L4.705,25.25a6.1,6.1,0,0,0-3.579,2.337l63.91,44.66,2.976,2.085a3.98,3.98,0,0,0,2.294.709,4.25,4.25,0,0,0,.95-.108,4.072,4.072,0,0,0,2.653-1.962L113.556,1.645A6,6,0,0,0,110.744.948Z" transform="translate(0.903 0.002)"/><path d="M7.655,5.667a.285.285,0,0,1-.162-.05L.122.518A.284.284,0,1,1,.446.051l7.371,5.1a.284.284,0,0,1-.163.518" transform="translate(103.355 62.496)"/><path d="M11.776,8.518a.285.285,0,0,1-.162-.05L.122.518A.284.284,0,1,1,.446.051L11.938,8a.284.284,0,0,1-.163.518" transform="translate(103.805 57.495)"/><path d="M4.45,3.45a.285.285,0,0,1-.162-.05L.122.518A.284.284,0,0,1,.446.051L4.612,2.932a.284.284,0,0,1-.163.518" transform="translate(109.672 56.241)"/><path d="M.474,3.3a.474.474,0,0,1-.106-.936L10.544.013a.474.474,0,0,1,.213.924L.581,3.285A.488.488,0,0,1,.474,3.3" transform="translate(29.541 71.016)"/><path d="M.474,4.375a.474.474,0,0,1-.106-.936L15.22.013a.474.474,0,0,1,.213.923L.581,4.363a.488.488,0,0,1-.107.012" transform="translate(26.093 76.338)"/></g><g transform="translate(44.447 9.273)"><path class="c" d="M25.773,0l3.85,16.683a.169.169,0,0,1-.269.187l-3.847-3.32-2.118,4.937a.16.16,0,0,1-.258.06l-4.067-3.51-2.118,4.937a.16.16,0,0,1-.258.06L12.62,16.524,10.5,21.461a.16.16,0,0,1-.258.059L6.177,18.01l-2,4.67a.169.169,0,0,1-.323-.05L0,5.947Z" transform="translate(0.474 0.475)"/><path d="M4.5,23.731l-.056,0a.662.662,0,0,1-.582-.518L.012,6.528A.474.474,0,0,1,.367,5.96L26.14.012a.472.472,0,0,1,.568.356l3.85,16.683a.665.665,0,0,1-.3.721.628.628,0,0,1-.323.089.647.647,0,0,1-.421-.157l-3.357-2.9L24.3,19.148a.64.64,0,0,1-.443.373.608.608,0,0,1-.14.016.64.64,0,0,1-.42-.158l-3.577-3.087-1.863,4.343a.641.641,0,0,1-.442.373.613.613,0,0,1-.14.016.644.644,0,0,1-.421-.158l-3.577-3.087-1.863,4.342a.642.642,0,0,1-.443.373.623.623,0,0,1-.139.016.644.644,0,0,1-.422-.159L6.831,19.266,5.082,23.342A.635.635,0,0,1,4.5,23.731ZM25.892,1.043,1.042,6.777,4.58,22.109,6.215,18.3a.475.475,0,0,1,.329-.275.488.488,0,0,1,.106-.012.476.476,0,0,1,.311.115l3.747,3.233,1.951-4.548a.478.478,0,0,1,.329-.275.5.5,0,0,1,.1-.011.477.477,0,0,1,.312.115l3.747,3.233L19.1,15.324a.477.477,0,0,1,.329-.275.486.486,0,0,1,.106-.012.475.475,0,0,1,.31.114l3.747,3.234,1.952-4.549a.477.477,0,0,1,.329-.275.491.491,0,0,1,.1-.011.479.479,0,0,1,.312.114l3.14,2.709L25.892,1.043Z" transform="translate(0 0)"/><path d="M5.3,4.039a.285.285,0,0,1-.162-.05L.122.518A.284.284,0,1,1,.446.051l5.017,3.47a.284.284,0,0,1-.163.518" transform="translate(10.158 9.233)"/><path d="M2.5,2.105a.285.285,0,0,1-.162-.05L.122.518A.284.284,0,1,1,.446.051L2.667,1.587a.284.284,0,0,1-.163.518" transform="translate(13.286 8.565)"/></g></g><g transform="translate(212.8 181.302)"><g transform="translate(0 0)"><path class="d" d="M38.116,104.038a.463.463,0,0,1-.547-.241A17.7,17.7,0,0,0,4.488,108.91a.692.692,0,0,1-1.349.053q-.468-1.7-.866-3.435A88,88,0,0,1,68.193,0C17.46,34.118,34.708,93.92,38.116,104.038" transform="translate(0.464 2.746)"/><path d="M4.272,110.423a1.143,1.143,0,0,1-1.127-.862c-.307-1.12-.6-2.282-.871-3.454A88.589,88.589,0,0,1,68.551.012a.474.474,0,0,1,.371.855C47.64,15.179,35.819,35.589,33.788,61.53a113.823,113.823,0,0,0,5.241,42.831.475.475,0,0,1-.323.608.97.97,0,0,1-.256.035.942.942,0,0,1-.839-.516,17.1,17.1,0,0,0-6.39-6.744,17.328,17.328,0,0,0-12.78-2,17.117,17.117,0,0,0-13.023,13.72,1.138,1.138,0,0,1-1.088.956Zm62-108.873A87.081,87.081,0,0,0,23.493,27.637,87.982,87.982,0,0,0,2.155,71.793a87.035,87.035,0,0,0,1.043,34.1c.268,1.162.558,2.311.861,3.416a.217.217,0,0,0,.227.165.2.2,0,0,0,.2-.174A18.063,18.063,0,0,1,18.229,94.823a18.277,18.277,0,0,1,12.588,1.609,18.138,18.138,0,0,1,6.541,5.8,115.532,115.532,0,0,1-3.573-16.2,109.816,109.816,0,0,1-.941-24.573C34.829,36.1,46.075,15.945,66.27,1.551Z" transform="translate(0 2.272)"/><path class="e" d="M39.954,96.087a.473.473,0,0,1-.665-.194,17.71,17.71,0,0,0-33.367,7.7.464.464,0,0,1-.353.449C2.161,93.924-15.087,34.122,35.646,0l.014,0a.046.046,0,0,1,.02.013c-18.433,31.595,2.1,90.114,4.273,96.074" transform="translate(33.011 2.743)"/><path d="M6.043,104.987a.474.474,0,0,1-.449-.322A114.853,114.853,0,0,1,.307,61.457C2.362,35.213,14.322,14.563,35.856.082a.471.471,0,0,1,.158-.069A.539.539,0,0,1,36.133,0a.483.483,0,0,1,.173.03.571.571,0,0,1,.215.154.475.475,0,0,1,.043.539C28.9,13.864,27.036,33.155,31.032,58.06A224.072,224.072,0,0,0,40.873,96.4a.474.474,0,0,1-.21.574.975.975,0,0,1-.482.128.938.938,0,0,1-.838-.514,17.176,17.176,0,0,0-15.224-9.2,17.261,17.261,0,0,0-17.25,16.694.94.94,0,0,1-.706.894A.469.469,0,0,1,6.043,104.987ZM34.8,1.961C14.516,16.209,3.231,36.252,1.252,61.531A109.2,109.2,0,0,0,2.329,86.842a112.253,112.253,0,0,0,3.67,16,18.064,18.064,0,0,1,4.412-10.2,18.178,18.178,0,0,1,28.777,1.825c-1.041-3.031-2.631-7.942-4.3-14.127A218.486,218.486,0,0,1,30.1,58.21c-3.86-24.056-2.279-42.981,4.7-56.249Z" transform="translate(32.537 2.271)"/><path class="d" d="M45.991,88.212a.461.461,0,0,1-.4-.26,17.773,17.773,0,0,0-33.462,7.721.462.462,0,0,1-.237.4C9.719,90.114-10.815,31.595,7.618,0,38.55,20.672,45.536,83.767,45.991,88.212" transform="translate(61.078 2.755)"/><path d="M12.38,97.022a.473.473,0,0,1-.445-.312C9.553,90.175-10.806,31.95,7.7.235A.477.477,0,0,1,8,.012.492.492,0,0,1,8.107,0a.475.475,0,0,1,.264.079c13.013,8.7,23.377,25.671,30.805,50.449a224.853,224.853,0,0,1,7.775,38.109.473.473,0,0,1-.467.522h-.018a.937.937,0,0,1-.807-.515,17.1,17.1,0,0,0-6.383-6.749A17.326,17.326,0,0,0,13.091,96.16a.944.944,0,0,1-.478.8A.473.473,0,0,1,12.38,97.022ZM8.264,1.152C.81,14.282-.966,33.425,2.985,58.049a226.283,226.283,0,0,0,9.257,36.7,18.24,18.24,0,0,1,33.573-7.731c-.291-2.427-.959-7.464-2.176-13.932A218.986,218.986,0,0,0,38.269,50.8C30.988,26.51,20.892,9.806,8.264,1.152Z" transform="translate(60.589 2.281)"/><path class="e" d="M.468.486.5.479C.492.487.487.493.488.5A.05.05,0,0,0,.468.486" transform="translate(68.203 2.257)"/><path d="M.495.967A.476.476,0,0,1,.231.888.474.474,0,0,1,.366.019L.4.012A.474.474,0,0,1,.924.694.474.474,0,0,1,.495.967Z" transform="translate(68.197 2.263)"/><path class="d" d="M105.5,68.238q.367,1.587.672,3.18a.694.694,0,0,1-1.242.542A17.7,17.7,0,0,0,73.146,82.117a.467.467,0,0,1-.416.464C71.466,72.567,61.046,10.687,0,2.263A88,88,0,0,1,105.5,68.238" transform="translate(68.741 0.463)"/><path d="M73.2,83.517a.474.474,0,0,1-.469-.414A112.874,112.874,0,0,0,58.848,42.529C45.651,19.959,25.989,6.726.409,3.2a.474.474,0,0,1-.042-.931A87.961,87.961,0,0,1,35.1,1.271a88.59,88.59,0,0,1,14.254,3.7,89.133,89.133,0,0,1,36.275,23.96,88.353,88.353,0,0,1,9.018,11.7A87.979,87.979,0,0,1,106.434,68.6c.245,1.059.472,2.135.675,3.2a1.146,1.146,0,0,1-.666,1.287,1.188,1.188,0,0,1-.487.106,1.166,1.166,0,0,1-.932-.474,17.224,17.224,0,0,0-30.93,9.885.941.941,0,0,1-.833.92A.532.532,0,0,1,73.2,83.517ZM20.217.948A87.552,87.552,0,0,0,3.1,2.647a78.855,78.855,0,0,1,34.6,14.4A83.238,83.238,0,0,1,59.667,42.05,109.542,109.542,0,0,1,69.51,64.519a113.952,113.952,0,0,1,3.811,16.013,18.1,18.1,0,0,1,4.594-9.674,18.143,18.143,0,0,1,27.865,1.279.218.218,0,0,0,.178.1.255.255,0,0,0,.1-.022.2.2,0,0,0,.122-.242c-.2-1.042-.424-2.106-.668-3.163A87.015,87.015,0,0,0,93.851,41.15a87.412,87.412,0,0,0-8.922-11.579,88.171,88.171,0,0,0-10.623-9.853A88.265,88.265,0,0,0,49.041,5.867,87.057,87.057,0,0,0,20.221.948Z" transform="translate(68.267)"/><path class="e" d="M72.779,80.317a.467.467,0,0,1-.483-.256,17.749,17.749,0,0,0-33.425,7.712.475.475,0,0,1-.5.468C37.918,83.8,30.932,20.7,0,.029,0,.023,0,.017.01.009L.05,0C61.1,8.424,71.515,70.3,72.779,80.317" transform="translate(68.692 2.727)"/><path d="M38.862,89.187h-.033a.477.477,0,0,1-.455-.426,223.867,223.867,0,0,0-7.74-37.933C23.271,26.266,13.035,9.466.209.9a.477.477,0,0,1-.2-.284A.518.518,0,0,1,.132.162.47.47,0,0,1,.377.019.851.851,0,0,1,.545,0L.586,0A79.492,79.492,0,0,1,37.745,14.787,83.22,83.22,0,0,1,59.714,39.795,113.837,113.837,0,0,1,73.721,80.73a.474.474,0,0,1-.408.529.956.956,0,0,1-.129.009.943.943,0,0,1-.837-.516A17.1,17.1,0,0,0,65.965,74,17.295,17.295,0,0,0,39.817,88.259a.948.948,0,0,1-.3.67A.969.969,0,0,1,38.862,89.187ZM2.322,1.217h0c12.269,8.988,22.1,25.588,29.22,49.339a229.348,229.348,0,0,1,7.494,35.667A18.221,18.221,0,0,1,52.992,71.079a18.232,18.232,0,0,1,12.927,1.8A18.091,18.091,0,0,1,72.552,79.2,110.884,110.884,0,0,0,68.9,63.325a108.85,108.85,0,0,0-10-23.052C46.025,18.262,26.991,5.122,2.322,1.217Z" transform="translate(68.219 2.255)"/><path d="M2.424,3.988a.285.285,0,0,1-.246-.142C1.491,2.662.775,1.518.049.444A.284.284,0,1,1,.52.125C1.253,1.21,1.977,2.366,2.67,3.561a.284.284,0,0,1-.245.427" transform="translate(151.816 36.378)"/><path d="M10.521,10.5a.284.284,0,0,1-.227-.113A46.159,46.159,0,0,0,.117.514.284.284,0,0,1,.451.054a46.691,46.691,0,0,1,10.3,9.995.284.284,0,0,1-.227.455" transform="translate(140.049 24.296)"/><path d="M.942,4.547A.285.285,0,0,1,.661,4.3C.483,2.946.263,1.614.006.34A.284.284,0,0,1,.563.227c.26,1.287.482,2.632.661,4a.284.284,0,0,1-.245.319l-.037,0" transform="translate(94.376 54.489)"/><path d="M5.9,13.68a.284.284,0,0,1-.275-.214A46.16,46.16,0,0,0,.041.432a.284.284,0,1,1,.485-.3A46.691,46.691,0,0,1,6.18,13.325a.284.284,0,0,1-.205.346.28.28,0,0,1-.071.009" transform="translate(88.17 38.807)"/><path d="M112.319,96.841a.467.467,0,0,1-.172-.032c-16.26-6.334-42.89-21.254-77.417-56.364A433.8,433.8,0,0,1,.094.757.474.474,0,1,1,.854.191a432.539,432.539,0,0,0,34.561,39.6c34.406,34.984,60.9,49.837,77.076,56.136a.474.474,0,0,1-.172.915" transform="translate(3.874 111.743)"/><path d="M78.086,102.273a.473.473,0,0,1-.326-.13C20.321,47.464.234,1.121.038.659A.474.474,0,1,1,.91.289c.2.46,20.22,46.637,77.5,101.167a.474.474,0,0,1-.326.817" transform="translate(38.106 106.311)"/><path d="M43.7,110.227a.475.475,0,0,1-.428-.269C14.8,50.406.164,1.1.019.607A.474.474,0,0,1,.928.34c.145.49,14.764,49.73,43.2,109.209a.474.474,0,0,1-.427.678" transform="translate(72.491 98.357)"/><path d="M.474,136.636a.474.474,0,0,1-.348-.8c21.339-23.1,36.295-58.7,45.083-84.488A443.271,443.271,0,0,0,59.312.383a.474.474,0,1,1,.93.183A444.279,444.279,0,0,1,46.106,51.658c-8.818,25.88-23.832,61.6-45.284,84.826a.472.472,0,0,1-.348.152" transform="translate(114.735 72.174)"/><path d="M.474,31.216a.432.432,0,0,1-.06,0,.474.474,0,0,1-.41-.53C2.422,11.631,2.086.6,2.083.49A.474.474,0,0,1,2.54,0a.48.48,0,0,1,.49.458c0,.11.343,11.209-2.086,30.344a.474.474,0,0,1-.47.414" transform="translate(138.915 82.57)"/><path d="M.474,89.768a.493.493,0,0,1-.165-.029.474.474,0,0,1-.279-.61C11.336,58.768,19.178,28.917,23.338.406a.474.474,0,1,1,.937.137C20.106,29.121,12.247,59.037.918,89.459a.474.474,0,0,1-.444.308" transform="translate(114.735 119.043)"/><path d="M8.613,118.317H8.605a.474.474,0,0,1-.466-.482A695.734,695.734,0,0,0,.007.556.474.474,0,0,1,.941.392a696.842,696.842,0,0,1,8.146,117.46.474.474,0,0,1-.474.466" transform="translate(106.595 90.493)"/></g></g><g transform="translate(153.412 170.39)"><path d="M.474,2.91a.474.474,0,0,1-.242-.881C.481,1.881,6.413-1.57,12.652.87a.474.474,0,1,1-.345.882C6.5-.52.772,2.81.716,2.844a.471.471,0,0,1-.241.066" transform="translate(0 11.203)"/><path d="M2.129,12.988a.474.474,0,0,1-.411-.238C-1.619,6.942.914.564,1.023.3A.474.474,0,0,1,1.9.652c-.025.062-2.464,6.226.638,11.625a.474.474,0,0,1-.175.647.467.467,0,0,1-.235.063" transform="translate(10.351)"/></g><g transform="translate(197.234 187.026)"><path d="M10.812,7.155a.474.474,0,0,1-.4-.22C7.083,1.672.493.952.426.945A.474.474,0,0,1,.52,0C.809.031,7.632.767,11.211,6.428a.474.474,0,0,1-.4.727" transform="translate(0 3.885)"/><path d="M.474,11.04l-.054,0A.474.474,0,0,1,0,10.513C.757,3.858,6.577.222,6.824.07a.474.474,0,0,1,.5.807C7.263.913,1.646,4.433.944,10.62a.474.474,0,0,1-.47.42" transform="translate(10.337 0)"/></g><g transform="translate(237.245 369.432)"><path d="M.481,11.9a.474.474,0,0,1-.473-.458C-.22,4.744,5.006.3,5.228.11a.474.474,0,0,1,.608.727C5.786.879.743,5.183.954,11.406A.474.474,0,0,1,.5,11.9H.481" transform="translate(11.127 0)"/><path d="M11.608,5.583a.472.472,0,0,1-.359-.165C7.187.7.563.949.5.952A.465.465,0,0,1,0,.5a.474.474,0,0,1,.451-.5C.74-.006,7.6-.277,11.967,4.8a.474.474,0,0,1-.359.783" transform="translate(0 6.314)"/></g><g transform="translate(463.074 422.956)"><path d="M12.479,2.91a.47.47,0,0,1-.241-.066C12.181,2.81,6.447-.515.647,1.753A.474.474,0,1,1,.3.87c6.238-2.439,12.17,1.012,12.42,1.159a.474.474,0,0,1-.243.881" transform="translate(0 11.204)"/><path d="M.474,12.989a.474.474,0,0,1-.41-.71C3.165,6.879.726.715.7.653A.474.474,0,0,1,1.578.3C1.688.564,4.221,6.942.885,12.751a.473.473,0,0,1-.411.238" transform="translate(0 0)"/></g><g transform="translate(262.377 516.317)"><path d="M.475,2.343a.474.474,0,0,1-.208-.9C.527,1.316,6.719-1.642,12.739,1.3a.474.474,0,1,1-.416.851C6.727-.583.741,2.267.682,2.3a.465.465,0,0,1-.207.048" transform="translate(0 10.807)"/><path d="M1.647,13a.474.474,0,0,1-.429-.272C-1.637,6.671,1.4.519,1.535.26a.474.474,0,0,1,.846.427c-.03.06-2.96,6.007-.307,11.639a.473.473,0,0,1-.226.63.466.466,0,0,1-.2.045" transform="translate(10.885 0)"/></g><path class="f" d="M33.923,11.652a26.8,26.8,0,0,1-.858,4.454c-.914,3.168-3.1,6.946-7.288,15.458C16.484,29.648,12.163,29.051,9.1,27.828a26.7,26.7,0,0,1-4.041-2.056C-1.087,21.992-1.8,12.961,3.834,9c.082-.057.165-.113.249-.169C10.03,4.9,14.2,7.9,14.2,7.9s.2-5.133,6.943-7.418c.1-.031.192-.063.286-.092,6.587-2.012,13.28,4.093,12.493,11.263" transform="translate(328.806 426.731) rotate(13)"/></g></svg>